<svg xmlns="http://www.w3.org/2000/svg" version="1.1" xmlns:xlink="http://www.w3.org/1999/xlink" xmlns:svgjs="http://svgjs.dev/svgjs" width="100%" height="100%" viewBox="0 0 1000 600"><rect width="1000" height="600" x="0" y="0" fill="#6c9968"/><g><circle r="166.66666666666666" cx="481.85807291666663" cy="504.0805426079793" fill="#ffe17b" transform="matrix(0.3965841821421097,0,0,0.39658418214210966,0,100.08964102041995)"/><path d="M456.96554654405713 540.2546414768497L507.04368814928984 540.2546414768497L518.8819381250148 579.0805850853535L537.8407196455447 579.0805850853535L490.2532989510462 429.080581061254L474.28338252339745 429.080581061254L425.87548905830414 579.0805850853535L444.9221783756834 579.0805850853535L456.96554654405713 540.2546414768497ZM502.0036411299218 523.6693704712548L462.1228039592245 523.6693704712548L482.2243868387971 458.55899560476723L502.0036411299218 523.6693704712548Z " fill="#ffffff" transform="matrix(0.3965841821421097,0,0,0.39658418214210966,0,100.08964102041995)"/><path d="M745.9497364765405 496.07002741180804L792.3003635446037 496.07002741180804L792.3003635446037 484.1029805729068L745.9497364765405 484.1029805729068L745.9497364765405 448.44031381567396L799.3028202999751 448.44031381567396L799.3028202999751 436.38654924605606L731.8581052350808 436.38654924605606L731.8581052350808 547.3635651307218L799.9965621457086 547.3635651307218L799.9965621457086 535.3965182918205L745.9497364765405 535.3965182918205L745.9497364765405 496.07002741180804ZM831.7786104533702 472.67791955098477L831.3883806651452 464.8950032191632L818.7492714131897 464.8950032191632L818.7492714131897 547.3635651307218L832.147160808916 547.3635651307218L832.147160808916 481.7399224108774Q832.6241083278578 480.52587418084397 833.3395296062704 479.46358197956465Q834.054950884683 478.37961034560624 835.0522047879248 477.5557919037978L835.0522047879248 477.5557919037978Q836.3529707486749 476.4718202698393 838.2174019590834 475.90815502018097Q840.0818331694919 475.34448977052256 842.5966473602755 475.34448977052256L842.5966473602755 475.34448977052256Q844.8946672242674 475.34448977052256 846.6073424059217 475.90815502018097Q848.3200175875761 476.4718202698393 849.4473480868929 477.70754793255196L849.4473480868929 477.70754793255196Q850.6830757496056 478.98663446062295 851.2467409992639 480.9811422671065Q851.8104062489223 482.9539706409109 851.8104062489223 485.5555025624111L851.8104062489223 485.5555025624111L851.8104062489223 547.3635651307218L865.2299750773278 547.3635651307218L865.2299750773278 485.6205408604486Q865.2299750773278 485.16527277418606 865.2299750773278 484.8184018513194Q865.2299750773278 484.49321036113184 865.2299750773278 484.1029805729068L865.2299750773278 484.1029805729068Q865.4684488367988 482.19519049713995 866.1405112498529 480.6342713442398Q866.8342530955864 479.0733521913396 868.0483013256198 477.8593039613062L868.0483013256198 477.8593039613062Q869.2840289883325 476.7102940293102 871.1051013333827 476.01655218357683Q872.9261736784329 475.34448977052256 875.4409878692164 475.34448977052256L875.4409878692164 475.34448977052256Q877.8040460312458 475.34448977052256 879.6034389436169 475.9515138855393Q881.4028318559879 476.55853800055604 882.6168800860213 477.77258623058947L882.6168800860213 477.77258623058947Q883.7442105853381 479.0733521913396 884.372914133034 481.046180565144Q884.9799382480508 483.04068837162754 884.9799382480508 485.6205408604486L884.9799382480508 485.6205408604486L884.9799382480508 547.3635651307218L898.3778276437771 547.3635651307218L898.3778276437771 485.77229688920283Q898.3778276437771 479.83213233511054 897.0120233849894 475.4528869339184Q895.6462191262018 471.0736415327263 893.0446872047016 468.32035358247185L893.0446872047016 468.32035358247185Q890.6816290426722 465.89225712240494 887.2562786793635 464.63485002701316Q883.8309283160548 463.3774429316213 879.5600800782585 463.3774429316213L879.5600800782585 463.3774429316213Q876.4382417724582 463.4424812296588 873.8150304182788 464.20126137342976Q871.1701396314202 464.98172094987984 869.0455552288616 466.26080747795083L869.0455552288616 466.26080747795083Q867.3762389125656 467.40981740994675 865.9237169230613 468.92737769748857Q864.471194933557 470.4666174177096 863.4089027322776 472.2226514647223L863.4089027322776 472.2226514647223Q862.56340485779 470.31486138895536 861.392715493115 468.7756216687344Q860.2003466957607 467.25806138119253 858.7478247062564 466.1957691799133L858.7478247062564 466.1957691799133Q856.7749963324519 464.8299649211257 854.1517849782725 464.0928642100339Q851.506894191414 463.3774429316213 848.2332998568594 463.3774429316213L848.2332998568594 463.3774429316213Q842.4448913315213 463.4424812296588 838.3691579878376 465.89225712240494Q834.2934246441538 468.32035358247185 831.7786104533702 472.67791955098477L831.7786104533702 472.67791955098477ZM918.5180206027251 464.8950032191632L918.5180206027251 579.0805751403459L932.6096518441849 579.0805751403459L932.6096518441849 539.4288927701459Q934.1272121317267 541.1198885191211 935.8832461787393 542.529051643267Q937.639280225752 543.938214767413 939.6121085995564 545.087224699409L939.6121085995564 545.087224699409Q942.9073823667901 546.9082970444592 946.9831157104738 547.9055509477009Q951.0588490541576 548.8811254182635 955.7849653782165 548.8811254182635L955.7849653782165 548.8811254182635Q963.5462022773589 548.8811254182635 969.6164434275262 545.6942488144257Q975.6650051450143 542.4856927779088 979.7840973540564 536.8490402813247L979.7840973540564 536.8490402813247Q983.9031895630985 531.2123877847409 986.027773965657 523.5378686163151Q988.1740378008948 515.8850288805685 988.1740378008948 507.0398203474675L988.1740378008948 507.0398203474675L988.1740378008948 505.43554232920906Q988.1740378008948 496.22178344056226 986.027773965657 488.4822259740989Q983.9031895630985 480.74266850763564 979.7840973540564 475.1927337417684L979.7840973540564 475.1927337417684Q975.6650051450143 469.621119543222 969.5730845621679 466.49928123742166Q963.4811639793214 463.3774429316213 955.5464916187456 463.3774429316213L955.5464916187456 463.3774429316213Q951.0588490541576 463.3774429316213 947.1348717392281 464.3313379695048Q943.2108944242984 465.2852330073882 940.0023383877815 467.10630535243837L940.0023383877815 467.10630535243837Q937.7259979564687 468.32035358247185 935.7314901499852 470.0330287641262Q933.7586617761808 471.7457039457805 932.0676660272056 473.89196778101825L932.0676660272056 473.89196778101825L931.3956036141514 464.8950032191632L918.5180206027251 464.8950032191632ZM974.082406559435 505.43554232920906L974.082406559435 505.43554232920906L974.082406559435 507.0398203474675Q974.082406559435 513.0667026322765 972.7382817333265 518.5515991001062Q971.3941569072181 524.036495567936 968.6625483896428 528.2423055076947L968.6625483896428 528.2423055076947Q965.9092604393883 532.4264360147744 961.6384122015921 534.8978913401995Q957.389243396475 537.3693466656248 951.5141171404201 537.3693466656248L951.5141171404201 537.3693466656248Q947.8502930176406 537.3693466656248 944.8368518752361 536.4588104930997Q941.8234107328316 535.5482743205746 939.3953142727647 533.9439963023162L939.3953142727647 533.9439963023162Q937.249050437527 532.5781920435286 935.579734121231 530.6053636697242Q933.910417804935 528.6108558632407 932.6096518441849 526.3345154319279L932.6096518441849 526.3345154319279L932.6096518441849 486.6177947636904Q934.0621738336891 484.0379422748693 935.969963909456 481.8916784396316Q937.877753985223 479.76709403707304 940.3058504452898 478.31457204756873L940.3058504452898 478.31457204756873Q942.5171525785651 476.86205005806437 945.2921199614987 476.1032699142935Q948.0887667771115 475.34448977052256 951.362361111666 475.34448977052256L951.362361111666 475.34448977052256Q957.3025256657583 475.34448977052256 961.5733739035545 477.77258623058947Q965.8442221413508 480.2223621233356 968.6625483896428 484.3414543323777L968.6625483896428 484.3414543323777Q971.3941569072181 488.5255848394573 972.7382817333265 493.96712244192867Q974.082406559435 499.43033947707926 974.082406559435 505.43554232920906ZM1066.4367897726947 547.3635651307218L1066.4367897726947 547.3635651307218L1081.1571245618502 547.3635651307218L1081.1571245618502 546.1495169006882Q1079.7913203030625 542.7241665373796 1079.0325401592918 538.1064473767167Q1078.2520805828417 533.4887282160537 1078.2520805828417 529.3696360070115L1078.2520805828417 529.3696360070115L1078.2520805828417 491.04039903024085Q1078.2520805828417 484.1029805729068 1075.7372663920582 478.92159616258544Q1073.2224522012743 473.7402117522641 1068.8865656654407 470.2281436582387L1068.8865656654407 470.2281436582387Q1064.4639613988902 466.80279329493004 1058.4370791140814 465.09011811327565Q1052.4318762619514 463.3774429316213 1045.4077400739006 463.3774429316213L1045.4077400739006 463.3774429316213Q1037.7115414727957 463.3774429316213 1031.6629797553078 465.5020273341799Q1025.5927386051403 467.6482911694176 1021.4086080980608 471.0736415327263L1021.4086080980608 471.0736415327263Q1017.1377598602645 474.5857096267517 1014.8830988616309 478.92159616258544Q1012.6284378629973 483.2574826984192 1012.5633995649598 487.76680469568635L1012.5633995649598 487.76680469568635L1026.7417485371361 487.76680469568635Q1026.7417485371361 485.16527277418606 1027.999155632528 482.7805351794775Q1029.25656272792 480.37411815208975 1031.5329031592328 478.61808410507706L1031.5329031592328 478.61808410507706Q1033.8309230232244 476.86205005806437 1037.1478762231372 475.7997578567851Q1040.46482942305 474.73746565550584 1044.6489599301299 474.73746565550584L1044.6489599301299 474.73746565550584Q1049.1366024947179 474.73746565550584 1052.757067752139 475.8647961548226Q1056.3775330095602 477.0138060868186 1058.892347200344 479.0733521913396L1058.892347200344 479.0733521913396Q1061.4071613911274 481.1979365938982 1062.7946450825943 484.1896983036235Q1064.160449341382 487.15978058066963 1064.160449341382 490.8886430014867L1064.160449341382 490.8886430014867L1064.160449341382 497.3707933725582L1048.768052139172 497.3707933725582Q1040.161317365542 497.3707933725582 1033.1805400428493 499.0401096888542Q1026.1997627201572 500.70942600515025 1021.2568520693065 504.0697380704214L1021.2568520693065 504.0697380704214Q1016.2922619857769 507.4950884337301 1013.5823329008807 512.6114345460139Q1010.8940832486638 517.7061012256186 1010.8940832486638 524.4917636541985L1010.8940832486638 524.4917636541985Q1010.8940832486638 529.6731480645199 1012.9102704878266 534.1391111964288Q1014.9264577269893 538.6050743283374 1018.6553201478063 541.7919509321753L1018.6553201478063 541.7919509321753Q1022.3191442705858 545.087224699409 1027.608925844303 546.9733353424967Q1032.9203868506993 548.8811254182635 1039.4675755198086 548.8811254182635L1039.4675755198086 548.8811254182635Q1043.499949998134 548.8811254182635 1047.077056390197 548.0573069764552Q1050.6758422149387 547.2118091019676 1053.8627188187766 545.7592871124632L1053.8627188187766 545.7592871124632Q1057.0062365572562 544.306765122959 1059.6294479114356 542.398975047192Q1062.252659265615 540.5128644041043 1064.3989231008527 538.3666005688666L1064.3989231008527 538.3666005688666Q1064.6157174276445 540.9681324903669 1065.1143443792653 543.3528700850754Q1065.612971330886 545.7592871124632 1066.4367897726947 547.3635651307218ZM1041.5271216243295 536.6105665218539L1041.5271216243295 536.6105665218539Q1037.4080294152873 536.6105665218539 1034.286191109487 535.5482743205746Q1031.1643528036868 534.4859821192954 1029.1048066991657 532.5781920435286L1029.1048066991657 532.5781920435286Q1027.0452605946448 530.7571196984784 1026.0046478260447 528.1555877769781Q1024.9857144901237 525.5757352881569 1024.9857144901237 522.5189352803941L1024.9857144901237 522.5189352803941Q1024.9857144901237 519.3103792438772 1026.1564038547986 516.7955650530936Q1027.348772652153 514.28075086231 1029.6251130834657 512.4596785172598L1029.6251130834657 512.4596785172598Q1032.833669119983 509.8581465957595 1038.2752067224542 508.6007395003677Q1043.7384237576048 507.3433324049759 1051.0443925704847 507.3433324049759L1051.0443925704847 507.3433324049759L1064.160449341382 507.3433324049759L1064.160449341382 524.036495567936Q1062.9464011113482 526.486271460682 1060.8001372761105 528.7192530266365Q1058.675552873552 530.97391402527 1055.7705088945436 532.7299480722827L1055.7705088945436 532.7299480722827Q1052.8004266174974 534.4859821192954 1049.2233202254345 535.5482743205746Q1045.6462138333716 536.6105665218539 1041.5271216243295 536.6105665218539ZM1103.2484664619233 505.43554232920906L1103.2484664619233 505.43554232920906L1103.2484664619233 507.0398203474675Q1103.2484664619233 515.8850288805685 1105.6115246239528 523.5378686163151Q1107.9745827859824 531.2123877847409 1112.2454310237786 536.8490402813247L1112.2454310237786 536.8490402813247Q1116.5162792615747 542.4856927779088 1122.5865204117422 545.6942488144257Q1128.6350821292303 548.8811254182635 1136.1144864035437 548.8811254182635L1136.1144864035437 548.8811254182635Q1143.7239672739317 548.8811254182635 1149.4473375012326 546.3012729294425Q1155.170707728533 543.6997410079422 1159.2681205048962 538.6701126263749L1159.2681205048962 538.6701126263749L1159.896824052592 547.3635651307218L1172.8394453620558 547.3635651307218L1172.8394453620558 430.29462866320955L1158.7478141205959 430.29462866320955L1158.7478141205959 473.04646990653066Q1154.7154396422702 468.32035358247185 1149.1871843090823 465.8488982570466Q1143.6589289758942 463.3774429316213 1136.2662424322975 463.3774429316213L1136.2662424322975 463.3774429316213Q1128.7217998599467 463.3774429316213 1122.6081998444213 466.49928123742166Q1116.5162792615747 469.621119543222 1112.2454310237786 475.1927337417684L1112.2454310237786 475.1927337417684Q1107.909544487945 480.74266850763564 1105.5898451912735 488.4822259740989Q1103.2484664619233 496.22178344056226 1103.2484664619233 505.43554232920906ZM1117.3617771360623 507.0398203474675L1117.3617771360623 507.0398203474675L1117.3617771360623 505.43554232920906Q1117.3617771360623 499.43033947707926 1118.6625430968124 493.96712244192867Q1119.9416296248835 488.5255848394573 1122.6949175751379 484.3414543323777L1122.6949175751379 484.3414543323777Q1125.3614877946757 480.2223621233356 1129.5889771671136 477.77258623058947Q1133.8164665395516 475.34448977052256 1139.756631093644 475.34448977052256L1139.756631093644 475.34448977052256Q1146.694049550978 475.34448977052256 1151.3551275769992 478.57472523971876Q1155.9945261703415 481.8266401415941 1158.7478141205959 486.85626852316125L1158.7478141205959 486.85626852316125L1158.7478141205959 525.0987877692153Q1155.9945261703415 530.5186459390075 1151.3551275769992 533.7272019755245Q1146.694049550978 536.9140785793622 1139.6048750648897 536.9140785793622L1139.6048750648897 536.9140785793622Q1133.751428241514 536.9140785793622 1129.5456183017554 534.5293409846538Q1125.3614877946757 532.122923957266 1122.6949175751379 528.0038317482239L1122.6949175751379 528.0038317482239Q1119.9416296248835 523.8847395391817 1118.6625430968124 518.4865608020687Q1117.3617771360623 513.0667026322765 1117.3617771360623 507.0398203474675ZM1253.7904469860723 547.3635651307218L1253.7904469860723 547.3635651307218L1268.489102342549 547.3635651307218L1268.489102342549 546.1495169006882Q1267.1232980837613 542.7241665373796 1266.3645179399905 538.1064473767167Q1265.6057377962195 533.4887282160537 1265.6057377962195 529.3696360070115L1265.6057377962195 529.3696360070115L1265.6057377962195 491.04039903024085Q1265.6057377962195 484.1029805729068 1263.0909236054358 478.92159616258544Q1260.5761094146524 473.7402117522641 1256.2185434461394 470.2281436582387L1256.2185434461394 470.2281436582387Q1251.795939179589 466.80279329493004 1245.790736327459 465.09011811327565Q1239.76385404265 463.3774429316213 1232.7613972872787 463.3774429316213L1232.7613972872787 463.3774429316213Q1225.0435192534942 463.3774429316213 1218.9949575360063 465.5020273341799Q1212.924716385839 467.6482911694176 1208.7405858787592 471.0736415327263L1208.7405858787592 471.0736415327263Q1204.469737640963 474.5857096267517 1202.2367560750085 478.92159616258544Q1199.9820950763751 483.2574826984192 1199.8953773456583 487.76680469568635L1199.8953773456583 487.76680469568635L1214.0737263178348 487.76680469568635Q1214.0737263178348 485.16527277418606 1215.3311334132268 482.7805351794775Q1216.5885405086187 480.37411815208975 1218.8865603726103 478.61808410507706L1218.8865603726103 478.61808410507706Q1221.162900803923 476.86205005806437 1224.479854003836 475.7997578567851Q1227.7968072037488 474.73746565550584 1231.9809377108286 474.73746565550584L1231.9809377108286 474.73746565550584Q1236.4902597080954 474.73746565550584 1240.1107249655167 475.8647961548226Q1243.731190222938 477.0138060868186 1246.2460044137215 479.0733521913396L1246.2460044137215 479.0733521913396Q1248.7608186045052 481.1979365938982 1250.1266228632928 484.1896983036235Q1251.4924271220805 487.15978058066963 1251.4924271220805 490.8886430014867L1251.4924271220805 490.8886430014867L1251.4924271220805 497.3707933725582L1236.1000299198706 497.3707933725582Q1227.4932951462406 497.3707933725582 1220.512517823548 499.0401096888542Q1213.5534199335348 500.70942600515025 1208.5888298500054 504.0697380704214L1208.5888298500054 504.0697380704214Q1203.6459191991548 507.4950884337301 1200.9359901142586 512.6114345460139Q1198.2260610293624 517.7061012256186 1198.2260610293624 524.4917636541985L1198.2260610293624 524.4917636541985Q1198.2260610293624 529.6731480645199 1200.2422482685251 534.1391111964288Q1202.2584355076879 538.6050743283374 1206.008977361184 541.7919509321753L1206.008977361184 541.7919509321753Q1209.6511220512843 545.087224699409 1214.9625830576808 546.9733353424967Q1220.252364631398 548.8811254182635 1226.799553300507 548.8811254182635L1226.799553300507 548.8811254182635Q1230.8536072115116 548.8811254182635 1234.4307136035745 548.0573069764552Q1238.0078199956374 547.2118091019676 1241.2163760321544 545.7592871124632L1241.2163760321544 545.7592871124632Q1244.3382143379547 544.306765122959 1246.961425692134 542.398975047192Q1249.5846370463137 540.5128644041043 1251.7309008815514 538.3666005688666L1251.7309008815514 538.3666005688666Q1251.9476952083432 540.9681324903669 1252.446322159964 543.3528700850754Q1252.9449491115847 545.7592871124632 1253.7904469860723 547.3635651307218ZM1228.8590994050282 536.6105665218539L1228.8590994050282 536.6105665218539Q1224.740007195986 536.6105665218539 1221.6181688901856 535.5482743205746Q1218.4963305843853 534.4859821192954 1216.4367844798644 532.5781920435286L1216.4367844798644 532.5781920435286Q1214.3772383753433 530.7571196984784 1213.3583050394222 528.1555877769781Q1212.3176922708221 525.5757352881569 1212.3176922708221 522.5189352803941L1212.3176922708221 522.5189352803941Q1212.3176922708221 519.3103792438772 1213.5100610681766 516.7955650530936Q1214.6807504328517 514.28075086231 1216.9787702968435 512.4596785172598L1216.9787702968435 512.4596785172598Q1220.1656469006812 509.8581465957595 1225.6288639358318 508.6007395003677Q1231.0704015383035 507.3433324049759 1238.3980497838625 507.3433324049759L1238.3980497838625 507.3433324049759L1251.4924271220805 507.3433324049759L1251.4924271220805 524.036495567936Q1250.278378892047 526.486271460682 1248.1537944894885 528.7192530266365Q1246.0075306542508 530.97391402527 1243.1241661079212 532.7299480722827L1243.1241661079212 532.7299480722827Q1240.1540838308752 534.4859821192954 1236.555298006133 535.5482743205746Q1232.97819161407 536.6105665218539 1228.8590994050282 536.6105665218539ZM1260.1858796264273 431.3569208644888L1260.1858796264273 431.3569208644888L1252.337924996568 429.08058043317607Q1252.337924996568 430.83661448018876 1251.687542016193 432.3975336330889Q1251.037159035818 433.9584527859891 1250.0615845652553 435.0857832853059L1250.0615845652553 435.0857832853059Q1248.9776129312968 436.23479321730184 1247.5467703744716 436.92853506303527Q1246.0942483849674 437.6005974760895 1244.4899703667088 437.6005974760895L1244.4899703667088 437.6005974760895Q1241.5198880896628 437.6005974760895 1239.0484327642375 436.4732669767727Q1236.555298006133 435.32425704477674 1234.1922398441038 433.9584527859891L1234.1922398441038 433.9584527859891Q1231.7641433840367 432.65768682523895 1229.2059703278949 431.50867689324303Q1226.647797271753 430.3813463939262 1223.4609206679152 430.3813463939262L1223.4609206679152 430.3813463939262Q1219.9488525738898 430.3813463939262 1217.0871674602395 431.81218895075136Q1214.2254823465892 433.2647109402557 1212.165936242068 435.62776910228513L1212.165936242068 435.62776910228513Q1210.106390137547 438.0775449950312 1208.9357007728718 441.2210627335107Q1207.7433319755175 444.3862599046694 1207.7433319755175 447.8332897006572L1207.7433319755175 447.8332897006572L1215.6780043360936 449.6543620457074Q1215.76472206681 446.14229395168206 1217.932665334727 443.6708386262568Q1220.100608602644 441.1993833008315 1223.4609206679152 441.1993833008315L1223.4609206679152 441.1993833008315Q1225.520466772436 441.1993833008315 1227.189783088732 441.7196896851316Q1228.8590994050282 442.2616755021108 1230.398339125249 443.0204556458817L1230.398339125249 443.0204556458817Q1231.8291816820742 443.86595352036926 1233.2817036715787 444.8198485582528Q1234.7342256610827 445.77374359613617 1236.403541977379 446.53252373990705L1236.403541977379 446.53252373990705Q1238.0078199956374 447.3563421817155 1240.0023278021208 447.8983279986947Q1241.9751561759253 448.44031381567396 1244.4899703667088 448.44031381567396L1244.4899703667088 448.44031381567396Q1247.9153207300176 448.44031381567396 1250.8203647090263 447.0528301242071Q1253.7037292553557 445.6870258654195 1255.7632753598768 443.3239677033901L1255.7632753598768 443.3239677033901Q1257.8228214643977 441.04762727207736 1259.0151902617522 437.925788966277Q1260.1858796264273 434.78227122779754 1260.1858796264273 431.3569208644888ZM1289.3013577145512 505.37050403117155L1289.3013577145512 505.37050403117155L1289.3013577145512 507.0398203474675Q1289.3013577145512 515.9717466112851 1291.9028896360514 523.5812274816734Q1294.4827421248724 531.2123877847409 1299.3606144776854 536.8490402813247L1299.3606144776854 536.8490402813247Q1304.173448532461 542.4856927779088 1311.1325464224742 545.6942488144257Q1318.1133237451666 548.8811254182635 1326.871814547551 548.8811254182635L1326.871814547551 548.8811254182635Q1335.5652670518975 548.8811254182635 1342.5026855092315 545.6942488144257Q1349.4401039665659 542.4856927779088 1354.3179763193789 536.8490402813247L1354.3179763193789 536.8490402813247Q1359.109130941475 531.2123877847409 1361.7106628629754 523.5812274816734Q1364.3121947844757 515.9717466112851 1364.3121947844757 507.0398203474675L1364.3121947844757 507.0398203474675L1364.3121947844757 505.37050403117155Q1364.3121947844757 496.4602572000331 1361.7106628629754 488.7857380316073Q1359.109130941475 481.1328982958607 1354.3179763193789 475.4962457992768L1354.3179763193789 475.4962457992768Q1349.4401039665659 469.8595933026928 1342.4593266438733 466.6076784008175Q1335.50022875386 463.3774429316213 1326.7200585187966 463.3774429316213L1326.7200585187966 463.3774429316213Q1318.0482854471293 463.3774429316213 1311.1108669897949 466.6076784008175Q1304.173448532461 469.8595933026928 1299.3606144776854 475.4962457992768L1299.3606144776854 475.4962457992768Q1294.4827421248724 481.1328982958607 1291.9028896360514 488.7857380316073Q1289.3013577145512 496.4602572000331 1289.3013577145512 505.37050403117155ZM1303.4146683886902 507.0398203474675L1303.4146683886902 507.0398203474675L1303.4146683886902 505.37050403117155Q1303.4146683886902 499.3436217463626 1304.8455109455151 493.8153664131745Q1306.2980329350196 488.2871110799864 1309.2681152120658 484.1029805729068L1309.2681152120658 484.1029805729068Q1312.1731591910743 479.9188500658272 1316.509045726908 477.4257153077228Q1320.866611695421 474.9542599822975 1326.7200585187966 474.9542599822975L1326.7200585187966 474.9542599822975Q1332.5951847748515 474.9542599822975 1336.9744301760434 477.4257153077228Q1341.3536755772357 479.9188500658272 1344.3237578542821 484.1029805729068L1344.3237578542821 484.1029805729068Q1347.2288018332906 488.2871110799864 1348.7246826881533 493.8153664131745Q1350.1988841103366 499.3436217463626 1350.1988841103366 505.37050403117155L1350.1988841103366 505.37050403117155L1350.1988841103366 507.0398203474675Q1350.1988841103366 513.131740930314 1348.7463621208321 518.6599962635021Q1347.3155195640074 524.1882515966902 1344.4104755849985 528.3940615364489L1344.4104755849985 528.3940615364489Q1341.4403933079525 532.5781920435286 1337.0611479067602 535.0062885035954Q1332.6819025055681 537.4560643963415 1326.871814547551 537.4560643963415L1326.871814547551 537.4560643963415Q1321.0183677241753 537.4560643963415 1316.5957634576248 535.0062885035954Q1312.1731591910743 532.5781920435286 1309.2681152120658 528.3940615364489L1309.2681152120658 528.3940615364489Q1306.2980329350196 524.1882515966902 1304.8455109455151 518.6599962635021Q1303.4146683886902 513.131740930314 1303.4146683886902 507.0398203474675ZM1477.934101456 505.43554232920906L1477.934101456 505.43554232920906L1477.934101456 507.0398203474675Q1477.934101456 515.8850288805685 1480.2971596180291 523.5378686163151Q1482.6602177800587 531.2123877847409 1486.9310660178548 536.8490402813247L1486.9310660178548 536.8490402813247Q1491.2019142556514 542.4856927779088 1497.2721554058185 545.6942488144257Q1503.3207171233066 548.8811254182635 1510.80012139762 548.8811254182635L1510.80012139762 548.8811254182635Q1518.4096022680083 548.8811254182635 1524.1329724953089 546.3012729294425Q1529.8346632899302 543.6997410079422 1533.9537554989724 538.6701126263749L1533.9537554989724 538.6701126263749L1534.5607796139893 547.3635651307218L1547.525080356132 547.3635651307218L1547.525080356132 430.29462866320955L1533.4334491146724 430.29462866320955L1533.4334491146724 473.04646990653066Q1529.3793952036676 468.32035358247185 1523.8511398704795 465.8488982570466Q1518.3445639699707 463.3774429316213 1510.9518774263743 463.3774429316213L1510.9518774263743 463.3774429316213Q1503.4074348540234 463.3774429316213 1497.2938348384978 466.49928123742166Q1491.2019142556514 469.621119543222 1486.9310660178548 475.1927337417684L1486.9310660178548 475.1927337417684Q1482.5951794820212 480.74266850763564 1480.2754801853503 488.4822259740989Q1477.934101456 496.22178344056226 1477.934101456 505.43554232920906ZM1492.047412130139 507.0398203474675L1492.047412130139 507.0398203474675L1492.047412130139 505.43554232920906Q1492.047412130139 499.43033947707926 1493.3264986582099 493.96712244192867Q1494.62726461896 488.5255848394573 1497.3805525692146 484.3414543323777L1497.3805525692146 484.3414543323777Q1500.0471227887524 480.2223621233356 1504.27461216119 477.77258623058947Q1508.5021015336279 475.34448977052256 1514.4422660877203 475.34448977052256L1514.4422660877203 475.34448977052256Q1521.3796845450543 475.34448977052256 1526.040762571076 478.57472523971876Q1530.6801611644178 481.8266401415941 1533.4334491146724 486.85626852316125L1533.4334491146724 486.85626852316125L1533.4334491146724 525.0987877692153Q1530.6801611644178 530.5186459390075 1526.040762571076 533.7272019755245Q1521.3796845450543 536.9140785793622 1514.2905100589664 536.9140785793622L1514.2905100589664 536.9140785793622Q1508.4370632355904 536.9140785793622 1504.2312532958317 534.5293409846538Q1500.0471227887524 532.122923957266 1497.3805525692146 528.0038317482239L1497.3805525692146 528.0038317482239Q1494.62726461896 523.8847395391817 1493.3264986582099 518.4865608020687Q1492.047412130139 513.0667026322765 1492.047412130139 507.0398203474675ZM1628.476081980149 547.3635651307218L1628.476081980149 547.3635651307218L1643.1747373366252 547.3635651307218L1643.1747373366252 546.1495169006882Q1641.808933077838 542.7241665373796 1641.0501529340668 538.1064473767167Q1640.291372790296 533.4887282160537 1640.291372790296 529.3696360070115L1640.291372790296 529.3696360070115L1640.291372790296 491.04039903024085Q1640.291372790296 484.1029805729068 1637.7765585995126 478.92159616258544Q1635.2617444087286 473.7402117522641 1630.9041784402157 470.2281436582387L1630.9041784402157 470.2281436582387Q1626.4815741736652 466.80279329493004 1620.4763713215357 465.09011811327565Q1614.4494890367264 463.3774429316213 1607.4253528486756 463.3774429316213L1607.4253528486756 463.3774429316213Q1599.729154247571 463.3774429316213 1593.6805925300828 465.5020273341799Q1587.6103513799153 467.6482911694176 1583.426220872836 471.0736415327263L1583.426220872836 471.0736415327263Q1579.1553726350394 474.5857096267517 1576.900711636406 478.92159616258544Q1574.6677300704514 483.2574826984192 1574.581012339735 487.76680469568635L1574.581012339735 487.76680469568635L1588.7593613119116 487.76680469568635Q1588.7593613119116 485.16527277418606 1590.016768407303 482.7805351794775Q1591.274175502695 480.37411815208975 1593.5721953666866 478.61808410507706L1593.5721953666866 478.61808410507706Q1595.8485357979998 476.86205005806437 1599.1654889979127 475.7997578567851Q1602.482442197825 474.73746565550584 1606.6665727049049 474.73746565550584L1606.6665727049049 474.73746565550584Q1611.1758947021722 474.73746565550584 1614.7963599595932 475.8647961548226Q1618.4168252170143 477.0138060868186 1620.9316394077982 479.0733521913396L1620.9316394077982 479.0733521913396Q1623.4464535985817 481.1979365938982 1624.8122578573693 484.1896983036235Q1626.178062116157 487.15978058066963 1626.178062116157 490.8886430014867L1626.178062116157 490.8886430014867L1626.178062116157 497.3707933725582L1610.7856649139471 497.3707933725582Q1602.1789301403169 497.3707933725582 1595.1981528176248 499.0401096888542Q1588.2173754949322 500.70942600515025 1583.2744648440816 504.0697380704214L1583.2744648440816 504.0697380704214Q1578.3098747605518 507.4950884337301 1575.6216251083351 512.6114345460139Q1572.9116960234392 517.7061012256186 1572.9116960234392 524.4917636541985L1572.9116960234392 524.4917636541985Q1572.9116960234392 529.6731480645199 1574.9278832626014 534.1391111964288Q1576.9440705017641 538.6050743283374 1580.6729329225814 541.7919509321753L1580.6729329225814 541.7919509321753Q1584.336757045361 545.087224699409 1589.626538619078 546.9733353424967Q1594.9379996254747 548.8811254182635 1601.4851882945836 548.8811254182635L1601.4851882945836 548.8811254182635Q1605.517562772909 548.8811254182635 1609.1163485976513 548.0573069764552Q1612.6934549897137 547.2118091019676 1615.9020110262309 545.7592871124632L1615.9020110262309 545.7592871124632Q1619.0238493320312 544.306765122959 1621.6470606862104 542.398975047192Q1624.2702720403904 540.5128644041043 1626.4165358756277 538.3666005688666L1626.4165358756277 538.3666005688666Q1626.6333302024195 540.9681324903669 1627.1319571540403 543.3528700850754Q1627.6305841056615 545.7592871124632 1628.476081980149 547.3635651307218ZM1603.5447343991045 536.6105665218539L1603.5447343991045 536.6105665218539Q1599.4256421900627 536.6105665218539 1596.3038038842624 535.5482743205746Q1593.1819655784616 534.4859821192954 1591.1224194739407 532.5781920435286L1591.1224194739407 532.5781920435286Q1589.0628733694198 530.7571196984784 1588.0439400334985 528.1555877769781Q1587.0033272648989 525.5757352881569 1587.0033272648989 522.5189352803941L1587.0033272648989 522.5189352803941Q1587.0033272648989 519.3103792438772 1588.1956960622529 516.7955650530936Q1589.366385426928 514.28075086231 1591.66440529092 512.4596785172598L1591.66440529092 512.4596785172598Q1594.851281894758 509.8581465957595 1600.3144989299085 508.6007395003677Q1605.7560365323798 507.3433324049759 1613.0836847779387 507.3433324049759L1613.0836847779387 507.3433324049759L1626.178062116157 507.3433324049759L1626.178062116157 524.036495567936Q1624.9640138861237 526.486271460682 1622.8394294835648 528.7192530266365Q1620.693165648327 530.97391402527 1617.7881216693186 532.7299480722827L1617.7881216693186 532.7299480722827Q1614.8180393922726 534.4859821192954 1611.2409330002097 535.5482743205746Q1607.6638266081468 536.6105665218539 1603.5447343991045 536.6105665218539ZM1777.5438610821143 518.6383168308229L1814.594011530814 518.6383168308229L1823.3525023331981 547.3635651307218L1837.3790952766208 547.3635651307218L1802.1716966056506 436.38654924605606L1790.3564057955032 436.38654924605606L1754.5419830095161 547.3635651307218L1768.6336142509758 547.3635651307218L1777.5438610821143 518.6383168308229ZM1810.8651491099972 506.3677579344133L1781.3594412336479 506.3677579344133L1796.2315320515581 458.19605852129996L1810.8651491099972 506.3677579344133ZM1899.6424259311934 430.29462866320955L1857.4976088028893 430.29462866320955L1857.4976088028893 442.5651875596192L1885.5507946897337 442.5651875596192L1885.5507946897337 535.1580445323495L1857.4976088028893 535.1580445323495L1857.4976088028893 547.3635651307218L1926.5466018860425 547.3635651307218L1926.5466018860425 535.1580445323495L1899.6424259311934 535.1580445323495L1899.6424259311934 430.29462866320955ZM1993.3192545378824 464.8950032191632L1951.1744374095783 464.8950032191632L1951.1744374095783 477.16556211557275L1979.2276232964227 477.16556211557275L1979.2276232964227 535.1580445323495L1951.1744374095783 535.1580445323495L1951.1744374095783 547.3635651307218L2020.223430492731 547.3635651307218L2020.223430492731 535.1580445323495L1993.3192545378824 535.1580445323495L1993.3192545378824 464.8950032191632ZM1977.3848715186932 443.2589294053526L1977.3848715186932 443.2589294053526Q1977.3848715186932 446.68427976866127 1979.4877764885728 448.960620199974Q1981.5906814584523 451.2586400639659 1985.8398502635696 451.2586400639659L1985.8398502635696 451.2586400639659Q1990.0456602033282 451.2586400639659 1992.1702446058866 448.960620199974Q1994.3165084411244 446.68427976866127 1994.3165084411244 443.2589294053526L1994.3165084411244 443.2589294053526Q1994.3165084411244 441.3511393295857 1993.709484326108 439.7468613113272Q1993.0807807784117 438.1425832930687 1991.8667325483784 437.08029109178943L1991.8667325483784 437.08029109178943Q1990.8694786451365 436.0830371885477 1989.351918357595 435.51937193888926Q1987.834358070053 434.9340272565517 1985.8398502635696 434.9340272565517L1985.8398502635696 434.9340272565517Q1983.867021889765 434.9340272565517 1982.306102736865 435.51937193888926Q1980.7451835839647 436.0830371885477 1979.7479296807228 437.08029109178943L1979.7479296807228 437.08029109178943Q1978.5338814506895 438.22930102378535 1977.9702162010312 439.81189960936473Q1977.3848715186932 441.4161776276232 1977.3848715186932 443.2589294053526ZM2042.639963882992 464.8950032191632L2042.639963882992 547.3635651307218L2056.731595124452 547.3635651307218L2056.731595124452 488.2220727819489Q2058.1841171139563 485.5555025624111 2060.113586622402 483.3442004291359Q2062.0647355635274 481.1328982958607 2064.362755427519 479.46358197956465L2064.362755427519 479.46358197956465Q2067.181081675811 477.5557919037978 2070.5197143084033 476.4501408371602Q2073.8800263736744 475.34448977052256 2077.7606448232455 475.34448977052256L2077.7606448232455 475.34448977052256Q2082.2699668205128 475.34448977052256 2085.73867604918 476.4067819718019Q2089.2073852778467 477.46907417308114 2091.635481737914 479.83213233511054L2091.635481737914 479.83213233511054Q2093.998539899943 482.19519049713995 2095.2125881299767 486.01077064867366Q2096.4483157926893 489.8263508002074 2096.4483157926893 495.31124726803716L2096.4483157926893 495.31124726803716L2096.4483157926893 547.3635651307218L2110.539947034149 547.3635651307218L2110.539947034149 495.0077352105288Q2110.539947034149 486.7695507924446 2108.5237597949863 480.786027372994Q2106.5075725558236 474.80250395354335 2102.7570307023275 470.92188550397213L2102.7570307023275 470.92188550397213Q2099.0281682815103 467.04126705440086 2093.738386707793 465.1985152766715Q2088.4269257013966 463.3774429316213 2081.966454763004 463.3774429316213L2081.966454763004 463.3774429316213Q2077.153620708229 463.4424812296588 2072.8610930377536 464.7866060557673Q2068.546885934599 466.1090514491966 2064.883061811819 468.5588273419427L2064.883061811819 468.5588273419427Q2062.4549653517524 470.1631053602012 2060.265342651156 472.3310486281181Q2058.0973993832395 474.49899189603497 2056.2763270381893 477.10052381753525L2056.2763270381893 477.10052381753525L2055.2790731349473 464.8950032191632L2042.639963882992 464.8950032191632ZM2172.7382393906846 548.8811254182635L2172.7382393906846 548.8811254182635Q2184.7703245276234 548.8811254182635 2192.9651500803493 544.0466119308089Q2201.159975633075 539.2120984433542 2205.279067842117 532.9684218317536L2205.279067842117 532.9684218317536L2196.672333068487 526.2477977012112Q2192.770035186237 531.2774260827784 2186.916588362861 534.3342260905413Q2181.041462106806 537.3693466656248 2173.4970195344554 537.3693466656248L2173.4970195344554 537.3693466656248Q2167.7736493071548 537.3693466656248 2163.047532983096 535.2447622630663Q2158.3214166590374 533.1201778605077 2154.982784026445 529.3696360070115L2154.982784026445 529.3696360070115Q2151.6875102592116 525.8792473456654 2149.8230790488033 521.3048870503607Q2147.9586478383944 516.7305267550561 2147.4383414540944 510.7036444702471L2147.4383414540944 510.7036444702471L2147.4383414540944 510.16165865326786L2206.3413600433964 510.16165865326786L2206.3413600433964 503.8529437436297Q2206.3413600433964 495.22452953732045 2204.1734167754794 487.83184299372385Q2202.0054735075623 480.43915645012726 2197.5828692410123 474.9542599822975L2197.5828692410123 474.9542599822975Q2193.160264974462 469.5560812451845 2186.482999709278 466.4559223720633Q2179.827413876773 463.3774429316213 2170.895487612955 463.3774429316213L2170.895487612955 463.3774429316213Q2163.806313126867 463.3774429316213 2157.0640095636454 466.26080747795083Q2150.321706000424 469.16585145695944 2145.075283292065 474.5857096267517L2145.075283292065 474.5857096267517Q2139.7204634203104 480.0706060945814 2136.5335868164725 487.96191958979887Q2133.325030779956 495.8315536523372 2133.325030779956 505.8257721174341L2133.325030779956 505.8257721174341L2133.325030779956 509.0343281539511Q2133.325030779956 517.6410629275811 2136.2300747589643 524.9470317404611Q2139.1134393052935 532.2746799860201 2144.2948237156147 537.6078204250957L2144.2948237156147 537.6078204250957Q2149.4762081259364 542.9409608641713 2156.760497506137 545.9110431412174Q2164.044786886338 548.8811254182635 2172.7382393906846 548.8811254182635ZM2170.895487612955 474.9542599822975L2170.895487612955 474.9542599822975Q2176.3153457827475 474.9542599822975 2180.2393230976772 476.9487677887811Q2184.1633004126065 478.92159616258544 2186.764832334107 482.13015219910244L2186.764832334107 482.13015219910244Q2189.3446848229282 485.3170288029403 2190.7972068124323 489.6962742041324Q2192.2497288019367 494.0971990380037 2192.2497288019367 497.89109975685824L2192.2497288019367 497.89109975685824L2192.2497288019367 498.58484160259167L2147.8936095403574 498.58484160259167Q2148.7174279821656 492.86147137529105 2150.8203329520447 488.4822259740989Q2152.9232379219243 484.1029805729068 2155.958358497008 481.046180565144L2155.958358497008 481.046180565144Q2159.0151585047706 478.07609828809785 2162.8307386563047 476.5151791351977Q2166.624639375159 474.9542599822975 2170.895487612955 474.9542599822975Z " fill="#ffffff" transform="matrix(0.3965841821421097,0,0,0.39658418214210966,0,100.08964102041995)"/></g></svg>